<svg xmlns="http://www.w3.org/2000/svg" viewBox="0 0 88.76 102.59"><defs><style>.cls-1{fill:#00b3c4;}</style></defs><g id="图层_2" data-name="图层 2"><g id="图层_1-2" data-name="图层 1"><path class="cls-1" d="M83.84,9.87A72.1,72.1,0,0,1,67.68,87a72.11,72.11,0,0,1-23.3,15.6,71.62,71.62,0,0,1-16.8-9.84A57.69,57.69,0,0,0,74.45,36.09a57.36,57.36,0,0,0-11-33.9,82.91,82.91,0,0,1,20.4,7.68"/><path class="cls-1" d="M52.14.36l.18.18a50.28,50.28,0,0,1,0,71.09,50.37,50.37,0,0,1-8,6.5,50.58,50.58,0,0,1-7.91-6.44c-1.14-1.15-2.23-2.34-3.26-3.59a36.08,36.08,0,0,0,9-6.59A36,36,0,0,0,27.39,1.72,83.89,83.89,0,0,1,44.35,0C47,0,49.57.12,52.14.36"/><path class="cls-1" d="M31.2,76.87A57.76,57.76,0,0,1,16.1,21.74l.67,0a14.37,14.37,0,0,1,6.6,27.13,49.68,49.68,0,0,0,5.54,13.22A28.68,28.68,0,0,0,4.92,10,71.78,71.78,0,0,0,20.25,86.06a49.81,49.81,0,0,0,16.83-4A58.64,58.64,0,0,1,31.2,76.87Z"/></g></g></svg>